<?xml version="1.0" encoding="iso-8859-1"?>
<!-- Generator: Adobe Illustrator 18.1.1, SVG Export Plug-In . SVG Version: 6.00 Build 0)  -->
<svg version="1.1" id="Capa_1" xmlns="http://www.w3.org/2000/svg" xmlns:xlink="http://www.w3.org/1999/xlink" x="0px" y="0px"
	 viewBox="0 0 328.088 328.088" style="enable-background:new 0 0 328.088 328.088;" xml:space="preserve">
<g>
	<g>
		<path style="fill:#010002;" d="M123.003,119.157c15.735,2.261,30.318-8.664,32.579-24.393l-56.984-8.187
			C96.337,102.306,107.262,116.895,123.003,119.157z"/>
		<path style="fill:#010002;" d="M186.699,207.502c2.112-4.947,2.673-10.496,0.871-15.812
			c-6.552-19.404-14.404-38.277-22.334-57.157c-5.346-12.727-23.927-15.257-34.602-9.004c-7.781,4.565-11.349,11.474-11.856,18.999
			c-15.639,2.542-31.058-0.012-46.291-9.917c-1.987-1.289-3.944-2.053-5.842-2.429l11.033-25.294
			c4.063-10.245,8.33-20.425,12.232-30.717l11.301-31.016l5.633-15.514l5.472-15.568c0.078-0.215,0.143-0.459,0.209-0.68
			c1.563-5.627-1.736-11.45-7.357-13.008S93.724,2.122,92.172,7.749l-4.404,15.896L83.526,39.6l-8.449,31.905
			c-2.691,10.681-5,21.475-7.53,32.203l-5.663,28.378c-10.955,1.814-17.972,17.173-10.066,27.03c-0.28,0.507-0.525,1.02-0.829,1.522
			c-1.557,2.572-3.234,5.096-5.472,7.465c-1.581,1.689-2.434,4.099-2.059,6.564c0.644,4.278,4.636,7.226,8.92,6.576
			c4.278-0.644,7.214-4.642,6.575-8.915c-0.406-2.721-0.412-5.322-0.292-7.87c22.31,13.551,45.891,16.093,69.347,11.289
			c3.437,8.64,6.701,17.34,9.738,26.147c-13.98,18.098-27.955,36.207-41.923,54.322c-4.75,6.158-1.641,14.595,2.566,19.816
			c12.566,15.639,25.091,31.97,39.68,45.784c15.311,14.494,38.474-8.598,23.134-23.122c-11.086-10.502-20.98-22.447-30.598-34.435
			c8.079-10.466,16.152-20.938,24.231-31.404c4.529,34.644,22.662,66.668,48.648,90.726c15.448,14.309,38.635-8.771,23.122-23.122
			C199.952,275.763,184.51,243.572,186.699,207.502z"/>
		<path style="fill:#010002;" d="M97.149,80.682l44.513,5.334l16.743,2.005l13.951,1.671l1.325-3.61l-12.31-5.836
			c0,0-6.468-24.118-29.93-26.517C114.53,51.701,99.177,63.766,97.149,80.682z"/>
		<circle style="fill:#010002;" cx="270.725" cy="176.421" r="13.992"/>
	</g>
</g>
<g>
</g>
<g>
</g>
<g>
</g>
<g>
</g>
<g>
</g>
<g>
</g>
<g>
</g>
<g>
</g>
<g>
</g>
<g>
</g>
<g>
</g>
<g>
</g>
<g>
</g>
<g>
</g>
<g>
</g>
</svg>
